<svg height="512pt" viewBox="0 -48 512 512" width="512pt" xmlns="http://www.w3.org/2000/svg"><path d="m496.820312 0h-481.640624c-8.382813 0-15.179688 6.796875-15.179688 15.179688v386.527343c0 8.382813 6.796875 15.179688 15.179688 15.179688h481.640624c8.382813 0 15.179688-6.796875 15.179688-15.179688v-386.527343c0-8.382813-6.796875-15.179688-15.179688-15.179688zm0 0" fill="#91cbe8"/><path d="m496.820312 0h-240.820312v416.886719h240.820312c8.382813 0 15.179688-6.796875 15.179688-15.179688v-386.527343c0-8.382813-6.796875-15.179688-15.179688-15.179688zm0 0" fill="#6aa9cc"/><path d="m446.230469 53.59375h-380.460938c-8.382812 0-15.175781 6.796875-15.175781 15.179688v279.339843c0 8.382813 6.792969 15.175781 15.175781 15.175781h380.460938c8.382812 0 15.175781-6.792968 15.175781-15.175781v-279.339843c0-8.382813-6.792969-15.179688-15.175781-15.179688zm0 0" fill="#d9f5ff"/><path d="m446.230469 53.59375h-190.230469v309.695312h190.230469c8.382812 0 15.175781-6.792968 15.175781-15.175781v-279.339843c0-8.382813-6.792969-15.179688-15.175781-15.179688zm0 0" fill="#87e4f9"/><path d="m447.394531 198.367188c-35.761719-2.746094-66.589843 24.550781-81.78125 41.066406-8.90625 9.679687-19.640625 17.191406-31.046875 21.722656-31.09375 12.355469-63.734375 6.472656-97.023437-17.476562-85.617188-61.601563-167.558594-66.410157-171.003907-66.585938-4.15625-.203125-8.210937 1.292969-11.226562 4.160156-3.011719 2.863282-4.71875 6.839844-4.71875 11v155.859375c0 8.382813 6.792969 15.179688 15.175781 15.179688h380.460938c8.382812 0 15.175781-6.796875 15.175781-15.179688v-134.609375c0-7.933594-6.105469-14.527344-14.011719-15.136718zm0 0" fill="#97d85d"/><path d="m447.394531 198.367188c-35.761719-2.746094-66.589843 24.550781-81.78125 41.066406-8.90625 9.679687-19.640625 17.191406-31.046875 21.722656-25.324218 10.0625-51.675781 8.023438-78.566406-6.015625v108.152344h190.230469c8.382812 0 15.175781-6.796875 15.175781-15.179688v-134.609375c0-7.933594-6.105469-14.527344-14.011719-15.136718zm0 0" fill="#71b22d"/><path d="m303.558594 115.046875c-26.78125 0-48.570313 21.789063-48.570313 48.570313 0 26.777343 21.789063 48.566406 48.570313 48.566406s48.566406-21.789063 48.566406-48.566406c0-26.78125-21.785156-48.570313-48.566406-48.570313zm0 0" fill="#ffbf31"/></svg>